<svg width="16" height="16" viewBox="0 0 16 16" fill="none" xmlns="http://www.w3.org/2000/svg">
<path d="M0 0V11.32H5.91898V16L10.5892 11.31H15.6655V0L0 0ZM14.6096 10.27H10.1425L6.9647 13.47V10.27H1.04572V1H14.6096V10.24V10.27ZM4.51792 6.77C5.07885 6.77 5.53318 6.3225 5.53318 5.77C5.53318 5.2175 5.07885 4.77 4.51792 4.77C3.95699 4.77 3.50266 5.2175 3.50266 5.77C3.50266 6.3225 3.95699 6.77 4.51792 6.77ZM7.82768 6.77C8.38861 6.77 8.84294 6.3225 8.84294 5.77C8.84294 5.2175 8.38861 4.77 7.82768 4.77C7.26674 4.77 6.81241 5.2175 6.81241 5.77C6.81241 6.3225 7.26674 6.77 7.82768 6.77ZM11.1476 6.77C11.7085 6.77 12.1628 6.3225 12.1628 5.77C12.1628 5.2175 11.7085 4.77 11.1476 4.77C10.5867 4.77 10.1323 5.2175 10.1323 5.77C10.1323 6.3225 10.5867 6.77 11.1476 6.77Z" fill="#6E6E6E"/>
</svg>
