<svg width="65" height="64" viewBox="0 0 65 64" fill="none" xmlns="http://www.w3.org/2000/svg">
<g filter="url(#filter0_d_485_1013)">
<ellipse cx="32.5" cy="31" rx="28.5" ry="28" fill="white"/>
<path d="M60.5 31C60.5 46.1795 47.9724 58.5 32.5 58.5C17.0276 58.5 4.5 46.1795 4.5 31C4.5 15.8205 17.0276 3.5 32.5 3.5C47.9724 3.5 60.5 15.8205 60.5 31Z" stroke="#0672CB"/>
</g>
<path fill-rule="evenodd" clip-rule="evenodd" d="M32.5 19C33.0753 19 33.5417 19.4664 33.5417 20.0417L33.5417 30.4583L43.9583 30.4583C44.5336 30.4583 45 30.9247 45 31.5C45 32.0753 44.5336 32.5417 43.9583 32.5417L33.5417 32.5417L33.5417 42.9583C33.5417 43.5336 33.0753 44 32.5 44C31.9247 44 31.4583 43.5336 31.4583 42.9583L31.4583 32.5417L21.0417 32.5417C20.4664 32.5417 20 32.0753 20 31.5C20 30.9247 20.4664 30.4583 21.0417 30.4583L31.4583 30.4583L31.4583 20.0417C31.4583 19.4664 31.9247 19 32.5 19Z" fill="#0672CB"/>
<defs>
<filter id="filter0_d_485_1013" x="0" y="0" width="65" height="64" filterUnits="userSpaceOnUse" color-interpolation-filters="sRGB">
<feFlood flood-opacity="0" result="BackgroundImageFix"/>
<feColorMatrix in="SourceAlpha" type="matrix" values="0 0 0 0 0 0 0 0 0 0 0 0 0 0 0 0 0 0 127 0" result="hardAlpha"/>
<feOffset dy="1"/>
<feGaussianBlur stdDeviation="2"/>
<feComposite in2="hardAlpha" operator="out"/>
<feColorMatrix type="matrix" values="0 0 0 0 0 0 0 0 0 0 0 0 0 0 0 0 0 0 0.25 0"/>
<feBlend mode="normal" in2="BackgroundImageFix" result="effect1_dropShadow_485_1013"/>
<feBlend mode="normal" in="SourceGraphic" in2="effect1_dropShadow_485_1013" result="shape"/>
</filter>
</defs>
</svg>
