<svg width="26" height="26" viewBox="0 0 26 26" fill="none" xmlns="http://www.w3.org/2000/svg">
<path d="M13 0C5.81994 0 0 5.81994 0 13C0 20.1801 5.81994 26 13 26C20.1801 26 26 20.1801 26 13C26 5.81994 20.1801 0 13 0ZM13 24.2612C6.78031 24.2612 1.73875 19.2197 1.73875 13C1.73875 6.78031 6.78031 1.73875 13 1.73875C19.2197 1.73875 24.2612 6.78031 24.2612 13C24.2523 19.2156 19.2148 24.2523 13 24.2612ZM16.25 6.28875C15.8389 5.96294 15.3579 5.70294 14.8363 5.53394L14.8037 5.525C14.2651 5.35194 13.6443 5.25119 13.0016 5.24875H13C12.9659 5.24794 12.9261 5.24713 12.8854 5.24713C12.2029 5.24713 11.5497 5.37306 10.9476 5.60219L10.985 5.59C10.4211 5.78256 9.94175 6.09538 9.55663 6.49837L9.555 6.5C9.18369 6.90137 8.89444 7.38481 8.71812 7.91863L8.71 7.94625C8.528 8.46381 8.42237 9.06019 8.42237 9.68094C8.42237 9.80281 8.42644 9.92306 8.43456 10.0425L8.43375 10.0262H10.5138C10.5072 9.94581 10.504 9.85238 10.504 9.75731C10.504 9.05044 10.7071 8.39069 11.0589 7.83413L11.05 7.84875C11.4676 7.38969 12.0681 7.10206 12.7351 7.10206C12.8286 7.10206 12.9204 7.10775 13.0106 7.11831L13 7.1175C13.0236 7.11669 13.0504 7.11669 13.078 7.11669C13.4745 7.11669 13.8556 7.1825 14.2114 7.30356L14.1871 7.29625C14.4893 7.40594 14.7493 7.566 14.9687 7.76912L14.9671 7.7675C15.1499 7.94869 15.2896 8.17212 15.3701 8.42237L15.3733 8.43375C15.4537 8.66125 15.5009 8.92369 15.5033 9.19669C15.5041 9.21944 15.5041 9.24706 15.5041 9.27387C15.5041 9.59725 15.444 9.906 15.3343 10.1904L15.34 10.1733C15.2344 10.4601 15.0914 10.7071 14.9134 10.9257L14.9175 10.9208C14.7184 11.1727 14.5047 11.3961 14.2732 11.5984L14.2675 11.6033L13.4225 12.3183C13.1333 12.558 12.8724 12.8074 12.6319 13.0756L12.6263 13.0821C12.4353 13.3039 12.2671 13.5549 12.1322 13.8247L12.1225 13.8458C11.9925 14.1099 11.8958 14.4162 11.8487 14.7387L11.8462 14.7558C11.8292 14.9532 11.8194 15.1824 11.8194 15.4139C11.8194 15.6455 11.8292 15.8746 11.8479 16.1013L11.8462 16.0713H13.8288C13.8288 16.0558 13.8288 16.0371 13.8288 16.0184C13.8288 15.6804 13.8645 15.3506 13.9319 15.0329L13.9262 15.0638C13.9815 14.8233 14.0774 14.6112 14.2066 14.4235L14.2025 14.43C14.352 14.2098 14.5177 14.0172 14.7038 13.8474L14.7063 13.845C14.9175 13.65 15.1775 13.4225 15.5025 13.1625C15.8275 12.9025 16.0875 12.6425 16.3475 12.3825C16.5896 12.1436 16.8041 11.8771 16.9869 11.5887L16.9975 11.57C17.1722 11.2799 17.3168 10.9452 17.4135 10.5901L17.42 10.5625C17.524 10.1912 17.5841 9.76381 17.5841 9.32344C17.5841 9.27956 17.5833 9.23569 17.5825 9.19181V9.19831C17.5825 9.19588 17.5825 9.19263 17.5825 9.18937C17.5825 8.60437 17.4566 8.04862 17.2307 7.54812L17.2404 7.57331C17.0154 7.05656 16.6774 6.62512 16.2565 6.29525L16.2492 6.28956L16.25 6.28875ZM11.765 18.6712H13.845V20.7513H11.765V18.6712Z" fill="#F5F6F7"/>
</svg>
