<svg width="16" height="16" viewBox="0 0 16 16" fill="none" xmlns="http://www.w3.org/2000/svg">
<path d="M7.74854 1.4699L8.00005 1.73665L8.25155 1.47046C10.0541 -0.491188 12.9591 -0.489493 14.7597 1.47611C15.7137 2.51769 16.0517 3.85937 15.9937 5.14509C15.9362 6.42008 15.4902 7.66398 14.8462 8.58179C12.8966 11.3584 8.00005 16 8.00005 16C8.00005 16 3.10294 11.3584 1.1539 8.58179C0.509891 7.66398 0.0638819 6.42008 0.00638069 5.14509C-0.0521205 3.85937 0.286387 2.51769 1.23991 1.47555C3.04044 -0.490058 5.946 -0.491753 7.74854 1.4699ZM8.00005 14.5165C8.00005 14.5165 12.3251 10.3552 14.0627 7.87987C14.5827 7.13839 14.9487 6.11772 14.9952 5.08801C15.0412 4.06904 14.7762 3.06589 14.0652 2.28993C12.6511 0.745934 10.3581 0.745369 8.94307 2.28711L8.93807 2.29276L8.00005 3.28687L7.05703 2.28654C5.642 0.744804 3.34895 0.745369 1.93492 2.28937C1.22391 3.06533 0.9589 4.06847 1.0049 5.08688C1.05865 6.10271 1.38381 7.07621 1.93742 7.87874C3.67646 10.3575 8.00005 14.5165 8.00005 14.5165Z" fill="#BB2A33"/>
</svg>
