<svg width="32" height="32" viewBox="0 0 32 32" fill="none" xmlns="http://www.w3.org/2000/svg">
<path d="M15.9624 32C13.3909 32 11.3062 30.03 11.3062 27.6V26.64H20.6187V27.6C20.607 30.025 18.5287 31.989 15.9624 32ZM13.5073 28.58C13.9158 29.492 14.8555 30.12 15.9497 30.12C15.954 30.12 15.9582 30.12 15.9624 30.12H15.9614C17.0408 30.117 17.9678 29.498 18.3678 28.616L18.3742 28.6H13.5063L13.5073 28.58ZM30.4391 24.92H1.42227C0.786269 24.916 0.244453 24.539 0.0285724 24.01L0.0253977 24C0.00952411 23.919 0 23.825 0 23.73C0 23.635 0.0095241 23.541 0.0264559 23.451L0.0253977 23.46C0.0253977 23.456 0.0253977 23.452 0.0253977 23.448C0.0253977 23.055 0.177784 22.695 0.429644 22.418L0.427527 22.42L5.61288 17.56V9.78C5.61288 4.379 10.2469 0 15.9624 0C21.678 0 26.312 4.379 26.312 9.78V17.56L31.5608 22.48C31.8233 22.747 31.9841 23.106 31.9841 23.5C31.9841 23.507 31.9841 23.514 31.9841 23.521C31.9936 23.59 32 23.669 32 23.75C32 23.831 31.9947 23.911 31.9831 23.989L31.9841 23.98C31.7757 24.542 31.2201 24.938 30.5661 24.94L30.4391 24.92ZM2.4805 22.92H29.3809L24.2378 18V9.88C24.2378 5.561 20.533 2.06 15.9624 2.06C11.3919 2.06 7.68703 5.561 7.68703 9.88V18L2.4805 22.92Z" fill="black"/>
</svg>
