<svg width="18" height="18" viewBox="0 0 18 18" fill="#000" xmlns="http://www.w3.org/2000/svg">
<path d="M9 11.3063C11.0936 11.3063 12.7913 9.60862 12.7913 7.515C12.7913 5.42137 11.0936 3.72375 9 3.72375C6.90637 3.72375 5.20875 5.42137 5.20875 7.515C5.20875 7.51894 5.20875 7.52287 5.20875 7.52681C5.21494 9.61594 6.91031 11.3063 9 11.3063ZM9 4.93875C10.4242 4.94494 11.5763 6.10087 11.5763 7.52625C11.5763 8.955 10.4181 10.1137 8.98875 10.1137C7.55944 10.1137 6.40125 8.95556 6.40125 7.52625C6.40744 6.09581 7.56844 4.93875 9 4.93875ZM9 0C4.02919 0 0 4.02919 0 9C0 13.9708 4.02919 18 9 18C13.9708 18 18 13.9708 18 9C18 4.02919 13.9708 0 9 0ZM9 1.20375C13.3048 1.21331 16.7906 4.70531 16.7906 9.01125C16.7906 10.8911 16.1263 12.6163 15.0193 13.9635L15.03 13.95C14.5069 12.6877 13.6541 11.6505 12.5781 10.9164L12.555 10.9012L12.1838 10.6538L11.8462 10.935C11.0734 11.5549 10.0806 11.9301 9 11.9301C7.91944 11.9301 6.92662 11.5549 6.14475 10.9277L6.15375 10.9344L5.81625 10.6532L5.445 10.8894C4.34588 11.6387 3.49312 12.6759 2.98631 13.8938L2.97 13.9382C1.872 12.6051 1.206 10.8799 1.206 8.99944C1.206 4.69462 4.69519 1.20431 8.99944 1.20319L9 1.20375ZM3.90375 14.8837C4.266 13.7784 4.9095 12.8481 5.75044 12.1466L5.76 12.1388C6.66787 12.762 7.79063 13.1338 9 13.1338C10.2094 13.1338 11.3321 12.762 12.2597 12.1258L12.24 12.1388C13.0854 12.852 13.7278 13.7807 14.0839 14.841L14.0962 14.8837C12.7417 16.0706 10.9552 16.7946 9 16.7946C7.04475 16.7946 5.25825 16.0706 3.89475 14.8759L3.90375 14.8837Z" fill="#F5F6F7"/>
</svg>
