<svg width="26" height="26" viewBox="0 0 26 26" fill="none" xmlns="http://www.w3.org/2000/svg">
<path d="M13 16.3313C16.0241 16.3313 18.4762 13.8791 18.4762 10.855C18.4762 7.83087 16.0241 5.37875 13 5.37875C9.97587 5.37875 7.52375 7.83087 7.52375 10.855C7.52375 10.8607 7.52375 10.8664 7.52375 10.8721C7.53269 13.8897 9.98156 16.3313 13 16.3313ZM13 7.13375C15.0573 7.14269 16.7213 8.81238 16.7213 10.8713C16.7213 12.935 15.0483 14.6087 12.9837 14.6087C10.9192 14.6087 9.24625 12.9358 9.24625 10.8713C9.25519 8.80506 10.9322 7.13375 13 7.13375ZM13 0C5.81994 0 0 5.81994 0 13C0 20.1801 5.81994 26 13 26C20.1801 26 26 20.1801 26 13C26 5.81994 20.1801 0 13 0ZM13 1.73875C19.2181 1.75256 24.2531 6.79656 24.2531 13.0163C24.2531 15.7316 23.2936 18.2236 21.6946 20.1695L21.71 20.15C20.9544 18.3267 19.7226 16.8285 18.1683 15.7682L18.135 15.7462L17.5987 15.3888L17.1112 15.795C15.9949 16.6904 14.5608 17.2323 13 17.2323C11.4392 17.2323 10.0051 16.6904 8.87575 15.7844L8.88875 15.7942L8.40125 15.3879L7.865 15.7292C6.27738 16.8114 5.04563 18.3097 4.31356 20.0688L4.29 20.1329C2.704 18.2073 1.742 15.7154 1.742 12.9992C1.742 6.78112 6.78194 1.73956 12.9992 1.73794L13 1.73875ZM5.63875 21.4987C6.162 19.9022 7.0915 18.5583 8.30619 17.5451L8.32 17.5338C9.63137 18.434 11.2531 18.9711 13 18.9711C14.7469 18.9711 16.3686 18.434 17.7084 17.5151L17.68 17.5338C18.9012 18.564 19.8291 19.9054 20.3434 21.437L20.3612 21.4987C18.4047 23.2131 15.8243 24.2588 13 24.2588C10.1757 24.2588 7.59525 23.2131 5.62575 21.4874L5.63875 21.4987Z" fill="black"/>
</svg>
