<svg width="32" height="26" viewBox="0 0 32 26" fill="none" xmlns="http://www.w3.org/2000/svg">
<path d="M15.4 15.9741L14.74 15.5184L14.14 16.0609C13.035 17.0255 11.615 17.6082 10.07 17.6082C8.525 17.6082 7.105 17.0245 5.987 16.0501L6 16.0609L5.4 15.5184L4.74 15.9741C2.217 18.014 0.49 21.0804 0.086 24.5927L0.08 24.6545L0 26H20.18L20.06 24.6979C19.661 21.1064 17.931 18.0227 15.431 15.998L15.4 15.9741ZM2.5 23.5912C2.96 21.5133 3.97 19.7414 5.35 18.4133L5.36 18.4046C6.693 19.3638 8.33 19.9346 10.09 19.9346C11.85 19.9346 13.487 19.3638 14.852 18.3829L14.82 18.4046C16.21 19.7414 17.22 21.5133 17.667 23.5228L17.68 23.5912H2.5ZM31.88 21.6598C31.47 18.0856 29.743 15.0193 27.251 13.0033L27.22 12.9794L26.56 12.5237L25.96 13.0662C24.859 14.0199 23.446 14.5961 21.91 14.5961C20.374 14.5961 18.961 14.0199 17.847 13.0543L17.86 13.0651L17.28 12.5443C17.058 13.0781 16.818 13.5338 16.543 13.9614L16.56 13.9331C17.54 14.6547 18.377 15.5021 19.082 16.4689L19.1 16.4939C19.945 16.8259 20.921 17.0179 21.938 17.0179C23.688 17.0179 25.315 16.4494 26.672 15.4739L26.64 15.4956C28.03 16.8324 29.04 18.6043 29.487 20.6138L29.5 20.6822H21.32C21.566 21.3256 21.8 22.1079 21.979 22.913L22 23.0259H32L31.88 21.7238V21.6598ZM17.84 10.6574C18.883 11.7956 20.328 12.4998 21.924 12.4998C25.105 12.4998 27.684 9.70144 27.684 6.2499C27.684 2.79835 25.105 0 21.924 0C19.438 0 17.32 1.70896 16.513 4.10366L16.5 4.14707C17.437 5.53376 18 7.27527 18 9.15783V9.16C17.995 9.69276 17.944 10.2103 17.852 10.7105L17.86 10.6574H17.84ZM21.84 2.36758C21.858 2.36758 21.879 2.36758 21.9 2.36758C23.888 2.36758 25.5 4.11668 25.5 6.27377C25.5 8.43085 23.888 10.18 21.9 10.18C19.912 10.18 18.3 8.43085 18.3 6.27377C18.3 6.26617 18.3 6.25858 18.3 6.25098V6.25207C18.311 4.10366 19.918 2.36758 21.9 2.36758C21.935 2.36758 21.97 2.3665 22.005 2.36867H22L21.84 2.36758ZM10.1 15.3882C12.018 15.3839 13.713 14.3563 14.748 12.7808L14.76 12.7624C15.435 11.7663 15.84 10.5152 15.84 9.16109V9.16C15.656 5.87013 13.152 3.27794 10.09 3.27794C7.028 3.27794 4.524 5.87013 4.341 9.14264L4.34 9.16V9.16109C4.34 10.5152 4.745 11.7663 5.431 12.7797L5.42 12.7624C6.469 14.3596 8.17 15.3882 10.092 15.3882C10.095 15.3882 10.098 15.3882 10.1 15.3882ZM10.1 5.25382C12.08 5.26575 13.68 7.01052 13.68 9.16C13.68 11.3171 12.068 13.0662 10.08 13.0662C8.092 13.0662 6.48 11.3171 6.48 9.16C6.491 6.99967 8.108 5.25382 10.1 5.25382Z" fill="#0E0E0E"/>
</svg>
