<svg width="19" height="10" viewBox="0 0 19 10" fill="none" xmlns="http://www.w3.org/2000/svg">
<path d="M2.60742 6.34375L4.37109 0.660156H5.53125L2.98828 7.97852C2.92969 8.13477 2.85156 8.30273 2.75391 8.48242C2.66016 8.66602 2.53906 8.83984 2.39062 9.00391C2.24219 9.16797 2.0625 9.30078 1.85156 9.40234C1.64453 9.50781 1.39648 9.56055 1.10742 9.56055C1.02148 9.56055 0.912109 9.54883 0.779297 9.52539C0.646484 9.50195 0.552734 9.48242 0.498047 9.4668L0.492188 8.58789C0.523438 8.5918 0.572266 8.5957 0.638672 8.59961C0.708984 8.60742 0.757812 8.61133 0.785156 8.61133C1.03125 8.61133 1.24023 8.57812 1.41211 8.51172C1.58398 8.44922 1.72852 8.3418 1.8457 8.18945C1.9668 8.04102 2.07031 7.83594 2.15625 7.57422L2.60742 6.34375ZM1.3125 0.660156L2.95898 5.58203L3.24023 6.72461L2.46094 7.12305L0.128906 0.660156H1.3125ZM6.12891 3.90039V3.76562C6.12891 3.30859 6.19531 2.88477 6.32812 2.49414C6.46094 2.09961 6.65234 1.75781 6.90234 1.46875C7.15234 1.17578 7.45508 0.949219 7.81055 0.789062C8.16602 0.625 8.56445 0.542969 9.00586 0.542969C9.45117 0.542969 9.85156 0.625 10.207 0.789062C10.5664 0.949219 10.8711 1.17578 11.1211 1.46875C11.375 1.75781 11.5684 2.09961 11.7012 2.49414C11.834 2.88477 11.9004 3.30859 11.9004 3.76562V3.90039C11.9004 4.35742 11.834 4.78125 11.7012 5.17188C11.5684 5.5625 11.375 5.9043 11.1211 6.19727C10.8711 6.48633 10.5684 6.71289 10.2129 6.87695C9.86133 7.03711 9.46289 7.11719 9.01758 7.11719C8.57227 7.11719 8.17188 7.03711 7.81641 6.87695C7.46094 6.71289 7.15625 6.48633 6.90234 6.19727C6.65234 5.9043 6.46094 5.5625 6.32812 5.17188C6.19531 4.78125 6.12891 4.35742 6.12891 3.90039ZM7.21289 3.76562V3.90039C7.21289 4.2168 7.25 4.51562 7.32422 4.79688C7.39844 5.07422 7.50977 5.32031 7.6582 5.53516C7.81055 5.75 8 5.91992 8.22656 6.04492C8.45312 6.16602 8.7168 6.22656 9.01758 6.22656C9.31445 6.22656 9.57422 6.16602 9.79688 6.04492C10.0234 5.91992 10.2109 5.75 10.3594 5.53516C10.5078 5.32031 10.6191 5.07422 10.6934 4.79688C10.7715 4.51562 10.8105 4.2168 10.8105 3.90039V3.76562C10.8105 3.45312 10.7715 3.1582 10.6934 2.88086C10.6191 2.59961 10.5059 2.35156 10.3535 2.13672C10.2051 1.91797 10.0176 1.74609 9.79102 1.62109C9.56836 1.49609 9.30664 1.43359 9.00586 1.43359C8.70898 1.43359 8.44727 1.49609 8.2207 1.62109C7.99805 1.74609 7.81055 1.91797 7.6582 2.13672C7.50977 2.35156 7.39844 2.59961 7.32422 2.88086C7.25 3.1582 7.21289 3.45312 7.21289 3.76562ZM17.1387 5.53516V0.660156H18.2285V7H17.1914L17.1387 5.53516ZM17.3438 4.19922L17.7949 4.1875C17.7949 4.60938 17.75 5 17.6602 5.35938C17.5742 5.71484 17.4336 6.02344 17.2383 6.28516C17.043 6.54688 16.7871 6.75195 16.4707 6.90039C16.1543 7.04492 15.7695 7.11719 15.3164 7.11719C15.0078 7.11719 14.7246 7.07227 14.4668 6.98242C14.2129 6.89258 13.9941 6.75391 13.8105 6.56641C13.627 6.37891 13.4844 6.13477 13.3828 5.83398C13.2852 5.5332 13.2363 5.17188 13.2363 4.75V0.660156H14.3203V4.76172C14.3203 5.04688 14.3516 5.2832 14.4141 5.4707C14.4805 5.6543 14.5684 5.80078 14.6777 5.91016C14.791 6.01562 14.916 6.08984 15.0527 6.13281C15.1934 6.17578 15.3379 6.19727 15.4863 6.19727C15.9473 6.19727 16.3125 6.10938 16.582 5.93359C16.8516 5.75391 17.0449 5.51367 17.1621 5.21289C17.2832 4.9082 17.3438 4.57031 17.3438 4.19922Z" fill="black"/>
</svg>
